<mxfile host="app.diagrams.net" modified="2023-07-21T22:05:14.382Z" agent="Mozilla/5.0 (Windows NT 10.0; Win64; x64) AppleWebKit/537.36 (KHTML, like Gecko) Chrome/115.0.0.0 Safari/537.36" etag="aX6FOpfCTjvVesSBD0k7" version="21.6.3" type="google">
  <diagram name="PÃ¡gina-1" id="mOlsG_dAmPLmRDx9s0Sd">
    <mxGraphModel grid="0" page="1" gridSize="10" guides="1" tooltips="1" connect="1" arrows="1" fold="1" pageScale="1" pageWidth="1169" pageHeight="1654" math="0" shadow="0">
      <root>
        <mxCell id="0" />
        <mxCell id="1" parent="0" />
        <mxCell id="hVtGGGxQJ00hFoBdWUgy-9" style="edgeStyle=orthogonalEdgeStyle;rounded=0;orthogonalLoop=1;jettySize=auto;html=1;exitX=0.25;exitY=0;exitDx=0;exitDy=0;" edge="1" parent="1" source="hVtGGGxQJ00hFoBdWUgy-1">
          <mxGeometry relative="1" as="geometry">
            <mxPoint x="670" y="405" as="targetPoint" />
            <Array as="points">
              <mxPoint x="200" y="405" />
            </Array>
          </mxGeometry>
        </mxCell>
        <mxCell id="hVtGGGxQJ00hFoBdWUgy-13" style="edgeStyle=orthogonalEdgeStyle;rounded=0;orthogonalLoop=1;jettySize=auto;html=1;exitX=1;exitY=0.25;exitDx=0;exitDy=0;entryX=0;entryY=0.25;entryDx=0;entryDy=0;" edge="1" parent="1" source="hVtGGGxQJ00hFoBdWUgy-1" target="hVtGGGxQJ00hFoBdWUgy-4">
          <mxGeometry relative="1" as="geometry" />
        </mxCell>
        <mxCell id="hVtGGGxQJ00hFoBdWUgy-18" style="edgeStyle=orthogonalEdgeStyle;rounded=0;orthogonalLoop=1;jettySize=auto;html=1;exitX=0.75;exitY=1;exitDx=0;exitDy=0;entryX=0;entryY=0.25;entryDx=0;entryDy=0;" edge="1" parent="1" source="hVtGGGxQJ00hFoBdWUgy-1" target="hVtGGGxQJ00hFoBdWUgy-5">
          <mxGeometry relative="1" as="geometry" />
        </mxCell>
        <mxCell id="hVtGGGxQJ00hFoBdWUgy-36" style="edgeStyle=orthogonalEdgeStyle;rounded=0;orthogonalLoop=1;jettySize=auto;html=1;exitX=0;exitY=0.75;exitDx=0;exitDy=0;" edge="1" parent="1" source="hVtGGGxQJ00hFoBdWUgy-1">
          <mxGeometry relative="1" as="geometry">
            <mxPoint x="179.79310344827582" y="520" as="targetPoint" />
            <Array as="points">
              <mxPoint x="120" y="560" />
              <mxPoint x="120" y="520" />
            </Array>
          </mxGeometry>
        </mxCell>
        <mxCell id="hVtGGGxQJ00hFoBdWUgy-1" value="Espera" style="whiteSpace=wrap;html=1;aspect=fixed;" vertex="1" parent="1">
          <mxGeometry x="180" y="500" width="80" height="80" as="geometry" />
        </mxCell>
        <mxCell id="hVtGGGxQJ00hFoBdWUgy-10" style="edgeStyle=orthogonalEdgeStyle;rounded=0;orthogonalLoop=1;jettySize=auto;html=1;exitX=0;exitY=0.75;exitDx=0;exitDy=0;entryX=0.75;entryY=0;entryDx=0;entryDy=0;" edge="1" parent="1" source="hVtGGGxQJ00hFoBdWUgy-2" target="hVtGGGxQJ00hFoBdWUgy-1">
          <mxGeometry relative="1" as="geometry">
            <Array as="points">
              <mxPoint x="240" y="450" />
            </Array>
          </mxGeometry>
        </mxCell>
        <mxCell id="hVtGGGxQJ00hFoBdWUgy-2" value="Programa" style="whiteSpace=wrap;html=1;aspect=fixed;" vertex="1" parent="1">
          <mxGeometry x="670" y="390" width="80" height="80" as="geometry" />
        </mxCell>
        <mxCell id="hVtGGGxQJ00hFoBdWUgy-14" style="edgeStyle=orthogonalEdgeStyle;rounded=0;orthogonalLoop=1;jettySize=auto;html=1;exitX=0;exitY=0.75;exitDx=0;exitDy=0;entryX=1;entryY=0.75;entryDx=0;entryDy=0;" edge="1" parent="1" source="hVtGGGxQJ00hFoBdWUgy-4" target="hVtGGGxQJ00hFoBdWUgy-1">
          <mxGeometry relative="1" as="geometry" />
        </mxCell>
        <mxCell id="hVtGGGxQJ00hFoBdWUgy-24" style="edgeStyle=orthogonalEdgeStyle;rounded=0;orthogonalLoop=1;jettySize=auto;html=1;exitX=1;exitY=0.25;exitDx=0;exitDy=0;entryX=0.044;entryY=0.246;entryDx=0;entryDy=0;entryPerimeter=0;" edge="1" parent="1" source="hVtGGGxQJ00hFoBdWUgy-4" target="hVtGGGxQJ00hFoBdWUgy-22">
          <mxGeometry relative="1" as="geometry" />
        </mxCell>
        <mxCell id="hVtGGGxQJ00hFoBdWUgy-4" value="Continuo" style="whiteSpace=wrap;html=1;aspect=fixed;" vertex="1" parent="1">
          <mxGeometry x="670" y="500" width="80" height="80" as="geometry" />
        </mxCell>
        <mxCell id="hVtGGGxQJ00hFoBdWUgy-19" style="edgeStyle=orthogonalEdgeStyle;rounded=0;orthogonalLoop=1;jettySize=auto;html=1;exitX=0;exitY=0.75;exitDx=0;exitDy=0;entryX=0.25;entryY=1;entryDx=0;entryDy=0;" edge="1" parent="1" source="hVtGGGxQJ00hFoBdWUgy-5" target="hVtGGGxQJ00hFoBdWUgy-1">
          <mxGeometry relative="1" as="geometry" />
        </mxCell>
        <mxCell id="hVtGGGxQJ00hFoBdWUgy-26" style="edgeStyle=orthogonalEdgeStyle;rounded=0;orthogonalLoop=1;jettySize=auto;html=1;exitX=1;exitY=0.25;exitDx=0;exitDy=0;entryX=0;entryY=1;entryDx=0;entryDy=0;" edge="1" parent="1" source="hVtGGGxQJ00hFoBdWUgy-5" target="hVtGGGxQJ00hFoBdWUgy-22">
          <mxGeometry relative="1" as="geometry" />
        </mxCell>
        <mxCell id="hVtGGGxQJ00hFoBdWUgy-30" style="edgeStyle=orthogonalEdgeStyle;rounded=0;orthogonalLoop=1;jettySize=auto;html=1;exitX=0.5;exitY=0;exitDx=0;exitDy=0;entryX=0.5;entryY=1;entryDx=0;entryDy=0;" edge="1" parent="1" source="hVtGGGxQJ00hFoBdWUgy-5" target="hVtGGGxQJ00hFoBdWUgy-4">
          <mxGeometry relative="1" as="geometry" />
        </mxCell>
        <mxCell id="hVtGGGxQJ00hFoBdWUgy-5" value="Paso a Paso" style="whiteSpace=wrap;html=1;aspect=fixed;" vertex="1" parent="1">
          <mxGeometry x="670" y="610" width="80" height="80" as="geometry" />
        </mxCell>
        <mxCell id="hVtGGGxQJ00hFoBdWUgy-8" value="&#39;P&#39;" style="text;html=1;align=center;verticalAlign=middle;resizable=0;points=[];autosize=1;strokeColor=none;fillColor=none;" vertex="1" parent="1">
          <mxGeometry x="440" y="380" width="40" height="30" as="geometry" />
        </mxCell>
        <mxCell id="hVtGGGxQJ00hFoBdWUgy-11" value="Fin Programacion" style="text;html=1;align=center;verticalAlign=middle;resizable=0;points=[];autosize=1;strokeColor=none;fillColor=none;" vertex="1" parent="1">
          <mxGeometry x="400" y="420" width="120" height="30" as="geometry" />
        </mxCell>
        <mxCell id="hVtGGGxQJ00hFoBdWUgy-16" value="&#39;C&#39;" style="text;html=1;align=center;verticalAlign=middle;resizable=0;points=[];autosize=1;strokeColor=none;fillColor=none;" vertex="1" parent="1">
          <mxGeometry x="440" y="490" width="40" height="30" as="geometry" />
        </mxCell>
        <mxCell id="hVtGGGxQJ00hFoBdWUgy-17" value="HALT" style="text;html=1;align=center;verticalAlign=middle;resizable=0;points=[];autosize=1;strokeColor=none;fillColor=none;" vertex="1" parent="1">
          <mxGeometry x="435" y="530" width="50" height="30" as="geometry" />
        </mxCell>
        <mxCell id="hVtGGGxQJ00hFoBdWUgy-20" value="&#39;S&#39;" style="text;html=1;align=center;verticalAlign=middle;resizable=0;points=[];autosize=1;strokeColor=none;fillColor=none;" vertex="1" parent="1">
          <mxGeometry x="440" y="600" width="40" height="30" as="geometry" />
        </mxCell>
        <mxCell id="hVtGGGxQJ00hFoBdWUgy-21" value="HALT || &#39;X&#39;" style="text;html=1;align=center;verticalAlign=middle;resizable=0;points=[];autosize=1;strokeColor=none;fillColor=none;" vertex="1" parent="1">
          <mxGeometry x="420" y="640" width="80" height="30" as="geometry" />
        </mxCell>
        <mxCell id="hVtGGGxQJ00hFoBdWUgy-25" style="edgeStyle=orthogonalEdgeStyle;rounded=0;orthogonalLoop=1;jettySize=auto;html=1;exitX=0;exitY=0.5;exitDx=0;exitDy=0;entryX=1;entryY=0.5;entryDx=0;entryDy=0;" edge="1" parent="1" source="hVtGGGxQJ00hFoBdWUgy-22" target="hVtGGGxQJ00hFoBdWUgy-4">
          <mxGeometry relative="1" as="geometry" />
        </mxCell>
        <mxCell id="hVtGGGxQJ00hFoBdWUgy-27" style="edgeStyle=orthogonalEdgeStyle;rounded=0;orthogonalLoop=1;jettySize=auto;html=1;exitX=0.5;exitY=1;exitDx=0;exitDy=0;entryX=1;entryY=0.5;entryDx=0;entryDy=0;" edge="1" parent="1" source="hVtGGGxQJ00hFoBdWUgy-22" target="hVtGGGxQJ00hFoBdWUgy-5">
          <mxGeometry relative="1" as="geometry" />
        </mxCell>
        <mxCell id="hVtGGGxQJ00hFoBdWUgy-22" value="Lectura" style="ellipse;whiteSpace=wrap;html=1;" vertex="1" parent="1">
          <mxGeometry x="920" y="500" width="120" height="80" as="geometry" />
        </mxCell>
        <mxCell id="hVtGGGxQJ00hFoBdWUgy-28" value="Call" style="text;html=1;align=center;verticalAlign=middle;resizable=0;points=[];autosize=1;strokeColor=none;fillColor=none;" vertex="1" parent="1">
          <mxGeometry x="750" y="498" width="40" height="30" as="geometry" />
        </mxCell>
        <mxCell id="hVtGGGxQJ00hFoBdWUgy-31" value="&#39;C&#39;" style="text;html=1;align=center;verticalAlign=middle;resizable=0;points=[];autosize=1;strokeColor=none;fillColor=none;" vertex="1" parent="1">
          <mxGeometry x="710" y="580" width="40" height="30" as="geometry" />
        </mxCell>
        <mxCell id="hVtGGGxQJ00hFoBdWUgy-32" value="Call" style="text;html=1;align=center;verticalAlign=middle;resizable=0;points=[];autosize=1;strokeColor=none;fillColor=none;" vertex="1" parent="1">
          <mxGeometry x="750" y="610" width="40" height="30" as="geometry" />
        </mxCell>
        <mxCell id="hVtGGGxQJ00hFoBdWUgy-33" style="edgeStyle=orthogonalEdgeStyle;rounded=0;orthogonalLoop=1;jettySize=auto;html=1;exitX=0.75;exitY=1;exitDx=0;exitDy=0;entryX=0.25;entryY=1;entryDx=0;entryDy=0;" edge="1" parent="1" source="hVtGGGxQJ00hFoBdWUgy-5" target="hVtGGGxQJ00hFoBdWUgy-5">
          <mxGeometry relative="1" as="geometry">
            <Array as="points">
              <mxPoint x="730" y="740" />
              <mxPoint x="690" y="740" />
            </Array>
          </mxGeometry>
        </mxCell>
        <mxCell id="hVtGGGxQJ00hFoBdWUgy-34" value="&#39;S&#39;" style="text;html=1;align=center;verticalAlign=middle;resizable=0;points=[];autosize=1;strokeColor=none;fillColor=none;" vertex="1" parent="1">
          <mxGeometry x="690" y="708" width="40" height="30" as="geometry" />
        </mxCell>
        <mxCell id="hVtGGGxQJ00hFoBdWUgy-37" value="&#39;R&#39;" style="text;html=1;align=center;verticalAlign=middle;resizable=0;points=[];autosize=1;strokeColor=none;fillColor=none;" vertex="1" parent="1">
          <mxGeometry x="110" y="528" width="40" height="30" as="geometry" />
        </mxCell>
        <mxCell id="hVtGGGxQJ00hFoBdWUgy-41" value="&lt;p style=&quot;text-align: justify; line-height: 0%; font-size: 8px;&quot;&gt;&lt;font color=&quot;#994c00&quot;&gt;Enviamos seÃ±al de&amp;nbsp;&lt;/font&gt;&lt;/p&gt;&lt;p style=&quot;text-align: justify; line-height: 0%; font-size: 8px;&quot;&gt;&lt;font color=&quot;#994c00&quot;&gt;reset a todo los&amp;nbsp;&lt;/font&gt;&lt;/p&gt;&lt;p style=&quot;text-align: justify; line-height: 0%; font-size: 8px;&quot;&gt;&lt;font color=&quot;#994c00&quot;&gt;elementos del&amp;nbsp;&amp;nbsp;&lt;/font&gt;&lt;/p&gt;&lt;p style=&quot;text-align: justify; line-height: 0%; font-size: 8px;&quot;&gt;&lt;font color=&quot;#994c00&quot;&gt;procesador.&lt;/font&gt;&lt;/p&gt;" style="text;html=1;align=center;verticalAlign=middle;resizable=0;points=[];autosize=1;strokeColor=none;fillColor=none;" vertex="1" parent="1">
          <mxGeometry x="30" y="518" width="90" height="50" as="geometry" />
        </mxCell>
        <mxCell id="hVtGGGxQJ00hFoBdWUgy-42" value="&lt;p style=&quot;text-align: justify; line-height: 0%; font-size: 8px;&quot;&gt;&lt;font color=&quot;#994c00&quot;&gt;Esperamos datos mediante UART&lt;/font&gt;&lt;/p&gt;&lt;p style=&quot;text-align: justify; line-height: 0%; font-size: 8px;&quot;&gt;&lt;font color=&quot;#994c00&quot;&gt;El primer dato indica el tamaÃ±o&amp;nbsp;&lt;/font&gt;&lt;span style=&quot;color: rgb(153, 76, 0); background-color: initial;&quot;&gt;del&amp;nbsp;&lt;/span&gt;&lt;/p&gt;&lt;p style=&quot;text-align: justify; line-height: 0%; font-size: 8px;&quot;&gt;&lt;span style=&quot;color: rgb(153, 76, 0); background-color: initial;&quot;&gt;programa (1 byte)&lt;/span&gt;&lt;/p&gt;&lt;p style=&quot;text-align: justify; line-height: 0%; font-size: 8px;&quot;&gt;&lt;span style=&quot;color: rgb(153, 76, 0); background-color: initial;&quot;&gt;Luego se esperan (tamaÃ±o * 4) bytes&lt;/span&gt;&lt;/p&gt;&lt;p style=&quot;text-align: justify; line-height: 0%; font-size: 8px;&quot;&gt;&lt;span style=&quot;color: rgb(153, 76, 0); background-color: initial;&quot;&gt;que se agruparan de a cuatro y&amp;nbsp;&lt;/span&gt;&lt;/p&gt;&lt;p style=&quot;text-align: justify; line-height: 0%; font-size: 8px;&quot;&gt;&lt;span style=&quot;color: rgb(153, 76, 0); background-color: initial;&quot;&gt;&amp;nbsp;se escribiran en la memoria de&amp;nbsp;&lt;/span&gt;&lt;/p&gt;&lt;p style=&quot;text-align: justify; line-height: 0%; font-size: 8px;&quot;&gt;&lt;span style=&quot;color: rgb(153, 76, 0); background-color: initial;&quot;&gt;instrucciones.&lt;/span&gt;&lt;/p&gt;" style="text;html=1;align=left;verticalAlign=middle;resizable=0;points=[];autosize=1;strokeColor=none;fillColor=none;" vertex="1" parent="1">
          <mxGeometry x="760" y="390" width="160" height="80" as="geometry" />
        </mxCell>
        <mxCell id="hVtGGGxQJ00hFoBdWUgy-43" value="&lt;p style=&quot;text-align: justify; line-height: 0%; font-size: 8px;&quot;&gt;&lt;font color=&quot;#006600&quot;&gt;En espera el procesador permanece&amp;nbsp;&lt;/font&gt;&lt;/p&gt;&lt;p style=&quot;text-align: justify; line-height: 0%; font-size: 8px;&quot;&gt;&lt;font color=&quot;#006600&quot;&gt;detenido mediante el bloqueo de todos&lt;/font&gt;&lt;/p&gt;&lt;p style=&quot;text-align: justify; line-height: 0%; font-size: 8px;&quot;&gt;&lt;font color=&quot;#006600&quot;&gt;sus latchs.&lt;/font&gt;&lt;/p&gt;" style="text;html=1;align=center;verticalAlign=middle;resizable=0;points=[];autosize=1;strokeColor=none;fillColor=none;" vertex="1" parent="1">
          <mxGeometry x="30" y="582" width="160" height="50" as="geometry" />
        </mxCell>
        <mxCell id="hVtGGGxQJ00hFoBdWUgy-45" value="&lt;p style=&quot;text-align: justify; line-height: 0%; font-size: 8px;&quot;&gt;&lt;font color=&quot;#994c00&quot;&gt;El procesador funciona de manera continua&amp;nbsp;&lt;/font&gt;&lt;/p&gt;&lt;p style=&quot;text-align: justify; line-height: 0%; font-size: 8px;&quot;&gt;&lt;font color=&quot;#994c00&quot;&gt;hasta que la unidad encuentra la&amp;nbsp;&lt;/font&gt;&lt;/p&gt;&lt;p style=&quot;text-align: justify; line-height: 0%; font-size: 8px;&quot;&gt;&lt;font color=&quot;#994c00&quot;&gt;instrucciÃ³n HALT.&lt;/font&gt;&lt;/p&gt;" style="text;html=1;align=left;verticalAlign=middle;resizable=0;points=[];autosize=1;strokeColor=none;fillColor=none;" vertex="1" parent="1">
          <mxGeometry x="760" y="548" width="175" height="44" as="geometry" />
        </mxCell>
        <mxCell id="hVtGGGxQJ00hFoBdWUgy-46" value="&lt;p style=&quot;text-align: justify; line-height: 0%; font-size: 8px;&quot;&gt;&lt;font color=&quot;#ff0000&quot;&gt;Automatica, al finalizar&lt;/font&gt;&lt;/p&gt;" style="text;html=1;align=left;verticalAlign=middle;resizable=0;points=[];autosize=1;strokeColor=none;fillColor=none;" vertex="1" parent="1">
          <mxGeometry x="790" y="499" width="98" height="28" as="geometry" />
        </mxCell>
        <mxCell id="hVtGGGxQJ00hFoBdWUgy-49" value="&lt;p style=&quot;text-align: justify; line-height: 0%; font-size: 8px;&quot;&gt;&lt;font color=&quot;#ff0000&quot;&gt;Automatica, posterior a cada paso&lt;/font&gt;&lt;/p&gt;" style="text;html=1;align=left;verticalAlign=middle;resizable=0;points=[];autosize=1;strokeColor=none;fillColor=none;" vertex="1" parent="1">
          <mxGeometry x="790" y="611" width="139" height="28" as="geometry" />
        </mxCell>
        <mxCell id="hVtGGGxQJ00hFoBdWUgy-50" value="&lt;p style=&quot;text-align: justify; line-height: 0%; font-size: 8px;&quot;&gt;&lt;span style=&quot;color: rgb(153, 76, 0); background-color: initial;&quot;&gt;Cada vez que se ingresa se permite la ejecucion&lt;/span&gt;&lt;br&gt;&lt;/p&gt;&lt;p style=&quot;text-align: justify; line-height: 0%; font-size: 8px;&quot;&gt;&lt;font color=&quot;#994c00&quot;&gt;de una instruccion&amp;nbsp;&lt;/font&gt;&lt;span style=&quot;color: rgb(153, 76, 0); background-color: initial;&quot;&gt;y luego llamamos a la rutina de lectura.&lt;/span&gt;&lt;/p&gt;&lt;p style=&quot;text-align: justify; line-height: 0%; font-size: 8px;&quot;&gt;&lt;span style=&quot;color: rgb(153, 76, 0); background-color: initial;&quot;&gt;Al finalizar ambas acciones quedamos en espera&lt;/span&gt;&lt;/p&gt;&lt;p style=&quot;text-align: justify; line-height: 0%; font-size: 8px;&quot;&gt;&lt;span style=&quot;color: rgb(153, 76, 0); background-color: initial;&quot;&gt;de nuevos caracteres (S, X, C) . Tambien retornamos al encontrar&lt;/span&gt;&lt;/p&gt;&lt;p style=&quot;text-align: justify; line-height: 0%; font-size: 8px;&quot;&gt;&lt;span style=&quot;color: rgb(153, 76, 0); background-color: initial;&quot;&gt;la instrucciÃ³n HALT.&lt;/span&gt;&lt;/p&gt;" style="text;html=1;align=left;verticalAlign=middle;resizable=0;points=[];autosize=1;strokeColor=none;fillColor=none;" vertex="1" parent="1">
          <mxGeometry x="760" y="648" width="251" height="60" as="geometry" />
        </mxCell>
        <mxCell id="SZunz6W5l3EEDD2gZK06-1" value="&lt;p style=&quot;text-align: justify; line-height: 0%; font-size: 8px;&quot;&gt;&lt;font color=&quot;#994c00&quot;&gt;Reset de PC&lt;/font&gt;&lt;/p&gt;" style="text;html=1;align=center;verticalAlign=middle;resizable=0;points=[];autosize=1;strokeColor=none;fillColor=none;" vertex="1" parent="1">
          <mxGeometry x="503" y="498" width="63" height="28" as="geometry" />
        </mxCell>
        <mxCell id="SZunz6W5l3EEDD2gZK06-2" value="&lt;p style=&quot;text-align: justify; line-height: 0%; font-size: 8px;&quot;&gt;&lt;font color=&quot;#994c00&quot;&gt;Reset de PC&lt;/font&gt;&lt;/p&gt;" style="text;html=1;align=center;verticalAlign=middle;resizable=0;points=[];autosize=1;strokeColor=none;fillColor=none;" vertex="1" parent="1">
          <mxGeometry x="503" y="610" width="63" height="28" as="geometry" />
        </mxCell>
      </root>
    </mxGraphModel>
  </diagram>
</mxfile>
